<svg id="图层_1" data-name="图层 1" xmlns="http://www.w3.org/2000/svg" xmlns:xlink="http://www.w3.org/1999/xlink" viewBox="0 0 98.56 25.6"><defs><style>.cls-1{fill:none;}.cls-2,.cls-4{font-size:7.36px;font-family:SegoePro;}.cls-2,.cls-4,.cls-9{fill:#fff;}.cls-2{letter-spacing:0em;}.cls-3{letter-spacing:0em;}.cls-5{letter-spacing:0em;}.cls-6{letter-spacing:0em;}.cls-7{fill:#198744;}.cls-8{clip-path:url(#clip-path);}</style><clipPath id="clip-path" transform="translate(-11.77 -14.87)"><polyline class="cls-1" points="110.33 40.47 110.33 14.87 11.77 14.87 11.77 40.47"/></clipPath></defs><text class="cls-2" transform="translate(26.13 9.98)">D<tspan class="cls-3" x="3.69" y="0">o</tspan></text><text class="cls-4" transform="translate(34.99 9.98)">w</text><text class="cls-4" transform="translate(40.23 9.98)">n</text><text class="cls-4" transform="translate(44.27 9.98)"><tspan class="cls-5">l</tspan><tspan x="3.65" y="0">o</tspan></text><text class="cls-4" transform="translate(50.02 9.98)">a</text><text class="cls-4" transform="translate(53.56 9.98)">d</text><text class="cls-4" transform="translate(57.71 9.98)"> </text><text class="cls-4" transform="translate(59.13 9.98)">f</text><text class="cls-4" transform="translate(61.29 9.98)">r</text><text class="cls-4" transform="translate(63.56 9.98)"><tspan class="cls-6">o</tspan><tspan x="3.66" y="0">m</tspan></text><polyline class="cls-7" points="98.56 25.6 98.56 0 0 0 0 25.6"/><g class="cls-8"><path class="cls-9" d="M24.66,19.71a2.47,2.47,0,0,1,.05.52c-.73.32-1,.55-1,1.64v.67l-.5.1v-.78c0-1.61.61-1.86,1.46-2.15m1.46-.35a3.89,3.89,0,0,1,.08.51c1.32-.19,1.29.35,1.29,1.49v.42l.5-.11v-.31c0-1.77-.27-2.24-1.87-2m-5.19,3.73V20.77c0-1.43.72-1.87,2.09-2.2,2.07-.48,2.2.85,2.2,1.7v2l.5-.1V20.31c0-1.6-.5-2.8-2.8-2.28-1.23.28-2.5.6-2.5,2.69v2.47Zm6,6.1H23.09V26.38L27,25.81Zm0,4-3.88-.56v-3H27Zm-4.27-4H19.62V26.83l3.08-.43Zm0,3.37-3.08-.43V29.57H22.7Zm7.82-10.78L16.64,24.56V34.65l13.88,2.78,2.77-1V22.79Z" transform="translate(-11.77 -14.87)"/></g><text class="cls-2" transform="translate(26.13 9.98)">D<tspan class="cls-3" x="3.69" y="0">o</tspan></text><text class="cls-4" transform="translate(34.99 9.98)">w</text><text class="cls-4" transform="translate(40.23 9.98)">n</text><text class="cls-4" transform="translate(44.27 9.98)"><tspan class="cls-5">l</tspan><tspan x="3.65" y="0">o</tspan></text><text class="cls-4" transform="translate(50.02 9.98)">a</text><text class="cls-4" transform="translate(53.56 9.98)">d</text><text class="cls-4" transform="translate(57.71 9.98)"> </text><text class="cls-4" transform="translate(59.13 9.98)">f</text><text class="cls-4" transform="translate(61.29 9.98)">r</text><text class="cls-4" transform="translate(63.56 9.98)"><tspan class="cls-6">o</tspan><tspan x="3.66" y="0">m</tspan></text><polyline points="98.56 25.6 98.56 0 0 0 0 25.6"/><g class="cls-8"><path class="cls-9" d="M24.66,19.71a2.47,2.47,0,0,1,.05.52c-.73.32-1,.55-1,1.64v.67l-.5.1v-.78c0-1.61.61-1.86,1.46-2.15m1.46-.35a3.89,3.89,0,0,1,.08.51c1.32-.19,1.29.35,1.29,1.49v.42l.5-.11v-.31c0-1.77-.27-2.24-1.87-2m-5.19,3.73V20.77c0-1.43.72-1.87,2.09-2.2,2.07-.48,2.2.85,2.2,1.7v2l.5-.1V20.31c0-1.6-.5-2.8-2.8-2.28-1.23.28-2.5.6-2.5,2.69v2.47Zm6,6.1H23.09V26.38L27,25.81Zm0,4-3.88-.56v-3H27Zm-4.27-4H19.62V26.83l3.08-.43Zm0,3.37-3.08-.43V29.57H22.7Zm7.82-10.78L16.64,24.56V34.65l13.88,2.78,2.77-1V22.79Z" transform="translate(-11.77 -14.87)"/><path class="cls-9" d="M42.71,22.16a2.64,2.64,0,0,1-.34,1.36,2.33,2.33,0,0,1-1,.92,3.11,3.11,0,0,1-1.43.32H38.63V19.68H40c1.79,0,2.68.83,2.68,2.48m-.62,0q0-2-2.07-2h-.8v4H40a2.1,2.1,0,0,0,1.55-.54,2,2,0,0,0,.56-1.51m4.83.76a1.94,1.94,0,0,1-.49,1.39,1.69,1.69,0,0,1-1.31.53,1.67,1.67,0,0,1-1.28-.52A1.88,1.88,0,0,1,43.36,23a2,2,0,0,1,.49-1.42,1.76,1.76,0,0,1,1.35-.52,1.62,1.62,0,0,1,1.27.5,2,2,0,0,1,.45,1.38m-.59,0a1.59,1.59,0,0,0-.3-1,1,1,0,0,0-.87-.37,1.09,1.09,0,0,0-.88.37A1.55,1.55,0,0,0,44,23a1.45,1.45,0,0,0,.33,1,1.11,1.11,0,0,0,.88.37A1.07,1.07,0,0,0,46,24a1.59,1.59,0,0,0,.3-1m6.06-1.82L51.3,24.76h-.6L50,22.16a2.32,2.32,0,0,1-.05-.33h0a2.2,2.2,0,0,1-.07.33L49,24.76h-.58l-1.1-3.63h.61l.75,2.73a2.4,2.4,0,0,1,0,.32h0a1.22,1.22,0,0,1,.06-.33l.83-2.72h.54l.75,2.74a2.4,2.4,0,0,1,.05.32h0a1.13,1.13,0,0,1,0-.32l.74-2.74Zm3.68,3.63h-.58V22.69c0-.77-.28-1.15-.84-1.15a.93.93,0,0,0-.72.32,1.23,1.23,0,0,0-.29.83v2.07h-.58V21.13h.58v.61h0a1.29,1.29,0,0,1,1.19-.69,1.08,1.08,0,0,1,.91.39,1.68,1.68,0,0,1,.31,1.1Zm1.67,0h-.58V19.39h.58Zm4.47-1.83a2,2,0,0,1-.49,1.39,1.73,1.73,0,0,1-1.32.53,1.69,1.69,0,0,1-1.28-.52A1.88,1.88,0,0,1,58.64,23a2,2,0,0,1,.49-1.42,1.77,1.77,0,0,1,1.36-.52,1.59,1.59,0,0,1,1.26.5,2,2,0,0,1,.46,1.38m-.6,0a1.59,1.59,0,0,0-.3-1,1,1,0,0,0-.86-.37,1.11,1.11,0,0,0-.89.37A1.6,1.6,0,0,0,59.24,23a1.49,1.49,0,0,0,.32,1,1.13,1.13,0,0,0,.89.37,1.06,1.06,0,0,0,.86-.36,1.59,1.59,0,0,0,.3-1m4.06,1.81h-.58v-.57h0a1.22,1.22,0,0,1-1.12.66,1.16,1.16,0,0,1-.83-.29,1,1,0,0,1-.32-.77c0-.67.4-1.06,1.2-1.18l1.08-.15c0-.61-.25-.92-.74-.92a1.85,1.85,0,0,0-1.19.44v-.59a1.73,1.73,0,0,1,.55-.23,2.29,2.29,0,0,1,.69-.11c.85,0,1.27.45,1.27,1.35Zm-.58-1.84-.88.13a1.27,1.27,0,0,0-.62.21.57.57,0,0,0-.19.49.56.56,0,0,0,.2.44.79.79,0,0,0,.5.16.93.93,0,0,0,.71-.3,1.08,1.08,0,0,0,.28-.76Zm4.74,1.84h-.58v-.62h0a1.35,1.35,0,0,1-1.25.71,1.33,1.33,0,0,1-1.09-.5A2,2,0,0,1,66.49,23a2.18,2.18,0,0,1,.45-1.44,1.49,1.49,0,0,1,1.21-.54,1.18,1.18,0,0,1,1.09.58h0V19.39h.58Zm-.58-1.64v-.54a1,1,0,0,0-.3-.74,1,1,0,0,0-.73-.3,1,1,0,0,0-.83.39A1.7,1.7,0,0,0,67.08,23a1.56,1.56,0,0,0,.29,1,1,1,0,0,0,1.57,0,1.25,1.25,0,0,0,.31-.88m5.23-3.22a.79.79,0,0,0-.38-.09c-.41,0-.61.25-.61.77v.55h.85v.49h-.85v3.14h-.58V21.62h-.62v-.49h.62v-.58a1.24,1.24,0,0,1,.32-.89,1.1,1.1,0,0,1,.83-.34,1.17,1.17,0,0,1,.42.06Zm2.37,1.82a.7.7,0,0,0-.44-.12.74.74,0,0,0-.63.37,1.66,1.66,0,0,0-.24.94v1.85H75V21.13h.58v.75h0a1.24,1.24,0,0,1,.38-.59.82.82,0,0,1,.57-.22,1,1,0,0,1,.35.05Zm3.83,1.21a1.94,1.94,0,0,1-.49,1.39,1.73,1.73,0,0,1-1.32.53,1.69,1.69,0,0,1-1.28-.52A1.88,1.88,0,0,1,77.11,23a2,2,0,0,1,.49-1.42A1.77,1.77,0,0,1,79,21.05a1.59,1.59,0,0,1,1.26.5,2,2,0,0,1,.46,1.38m-.59,0a1.59,1.59,0,0,0-.31-1,1,1,0,0,0-.86-.37,1.11,1.11,0,0,0-.89.37A1.6,1.6,0,0,0,77.71,23,1.49,1.49,0,0,0,78,24a1.13,1.13,0,0,0,.89.37,1.06,1.06,0,0,0,.86-.36,1.59,1.59,0,0,0,.31-1m6.63,1.81h-.58V22.68a1.57,1.57,0,0,0-.18-.87.72.72,0,0,0-.63-.27.75.75,0,0,0-.63.34,1.33,1.33,0,0,0-.26.81v2.07h-.58V22.61c0-.71-.27-1.07-.82-1.07a.76.76,0,0,0-.63.32,1.3,1.3,0,0,0-.25.83v2.07h-.58V21.13h.58v.58h0a1.23,1.23,0,0,1,1.12-.66,1.1,1.1,0,0,1,.64.19,1,1,0,0,1,.39.56,1.3,1.3,0,0,1,1.21-.75c.79,0,1.19.49,1.19,1.48Z" transform="translate(-11.77 -14.87)"/><path class="cls-9" d="M47.91,28l-2.13,7.56h-1L43.19,30a3.56,3.56,0,0,1-.12-.76h0a5.86,5.86,0,0,1-.14.75l-1.57,5.54h-1L38.11,28h1l1.6,5.8a4.17,4.17,0,0,1,.13.76h0a3.24,3.24,0,0,1,.16-.76L42.67,28h.85l1.6,5.84a5.1,5.1,0,0,1,.13.7h0a4.9,4.9,0,0,1,.14-.72L47,28Zm1.72.39a.53.53,0,0,1-.17.4.55.55,0,0,1-.4.16.57.57,0,0,1-.4-.15.54.54,0,0,1-.16-.41.56.56,0,0,1,.56-.56.6.6,0,0,1,.41.16.59.59,0,0,1,.16.4m-.15,7.17h-.86v-5.4h.86Zm5.79,0H54.4V32.49c0-1.14-.41-1.71-1.25-1.71a1.39,1.39,0,0,0-1.07.48,1.82,1.82,0,0,0-.43,1.23v3.08h-.86v-5.4h.86v.9h0a2,2,0,0,1,1.78-1,1.65,1.65,0,0,1,1.35.58,2.59,2.59,0,0,1,.47,1.65Zm6,0H60.4v-.92h0A2.17,2.17,0,0,1,56.9,35a3,3,0,0,1-.61-2A3.29,3.29,0,0,1,57,30.86a2.23,2.23,0,0,1,1.8-.82,1.75,1.75,0,0,1,1.62.88h0V27.58h.87Zm-.87-2.44v-.79A1.55,1.55,0,0,0,60,31.22a1.51,1.51,0,0,0-1.09-.44,1.46,1.46,0,0,0-1.23.58,2.48,2.48,0,0,0-.46,1.6,2.25,2.25,0,0,0,.43,1.46,1.39,1.39,0,0,0,1.16.54,1.49,1.49,0,0,0,1.17-.51,1.88,1.88,0,0,0,.46-1.32m7.25-.28a2.94,2.94,0,0,1-.73,2.07,2.56,2.56,0,0,1-2,.78,2.47,2.47,0,0,1-1.91-.76,2.79,2.79,0,0,1-.72-2,3,3,0,0,1,.74-2.12,2.64,2.64,0,0,1,2-.78,2.42,2.42,0,0,1,1.88.75,3,3,0,0,1,.68,2.06m-.89,0a2.42,2.42,0,0,0-.45-1.56A1.58,1.58,0,0,0,65,30.78a1.65,1.65,0,0,0-1.31.56,2.27,2.27,0,0,0-.49,1.57,2.16,2.16,0,0,0,.49,1.51A1.67,1.67,0,0,0,65,35a1.57,1.57,0,0,0,1.29-.53,2.37,2.37,0,0,0,.45-1.55m8.75-2.71-1.61,5.4H73l-1.11-3.86a2.66,2.66,0,0,1-.09-.5h0a2.48,2.48,0,0,1-.11.49l-1.21,3.87H69.6L68,30.17h.91L70,34.23a3.2,3.2,0,0,1,.07.49h0a1.9,1.9,0,0,1,.1-.5l1.24-4h.79l1.12,4.07a3,3,0,0,1,.07.49h0a2,2,0,0,1,.09-.49l1.1-4.07Zm3.69,4a1.42,1.42,0,0,1-.54,1.14,2.25,2.25,0,0,1-1.44.43,2.74,2.74,0,0,1-1.34-.32v-.93a2.2,2.2,0,0,0,1.4.51c.69,0,1-.25,1-.75a.69.69,0,0,0-.2-.5,3.91,3.91,0,0,0-.91-.51,2.74,2.74,0,0,1-1-.66,1.37,1.37,0,0,1-.3-.93,1.4,1.4,0,0,1,.54-1.12A2,2,0,0,1,77.79,30,2.6,2.6,0,0,1,79,30.3v.87a2,2,0,0,0-1.22-.39A1.05,1.05,0,0,0,77,31a.65.65,0,0,0-.26.55.72.72,0,0,0,.2.55,3.08,3.08,0,0,0,.82.45,2.87,2.87,0,0,1,1.08.69,1.3,1.3,0,0,1,.32.9" transform="translate(-11.77 -14.87)"/><path class="cls-9" d="M86.89,33.66a1.82,1.82,0,0,1-.68,1.5,2.85,2.85,0,0,1-1.83.54,3.47,3.47,0,0,1-.95-.14,2.55,2.55,0,0,1-.76-.29V34.22a2.57,2.57,0,0,0,.85.49,2.83,2.83,0,0,0,1,.19c1,0,1.45-.37,1.45-1.13a1.12,1.12,0,0,0-.31-.81,5.53,5.53,0,0,0-1.27-.9,4.46,4.46,0,0,1-1.31-1,2,2,0,0,1,.29-2.61,2.64,2.64,0,0,1,1.73-.56,3.11,3.11,0,0,1,1.49.27v1A2.39,2.39,0,0,0,85,28.68,1.62,1.62,0,0,0,84,29a1,1,0,0,0-.4.83,1.28,1.28,0,0,0,.12.6,1.47,1.47,0,0,0,.4.45,10.49,10.49,0,0,0,1,.59,4.91,4.91,0,0,1,1.41,1.06,1.79,1.79,0,0,1,.4,1.13m3.57,1.86a1.62,1.62,0,0,1-.81.17c-1,0-1.42-.53-1.42-1.59V30.91h-.92v-.73h.92V28.86l.87-.28v1.6h1.36v.73H89.1v3a1.3,1.3,0,0,0,.18.78.76.76,0,0,0,.62.23.91.91,0,0,0,.56-.18Zm6-2.67a2.94,2.94,0,0,1-.73,2.07,2.56,2.56,0,0,1-2,.78,2.47,2.47,0,0,1-1.91-.76,2.79,2.79,0,0,1-.72-2,3,3,0,0,1,.74-2.12,2.61,2.61,0,0,1,2-.78,2.44,2.44,0,0,1,1.89.75,3,3,0,0,1,.68,2.06m-.89,0a2.37,2.37,0,0,0-.45-1.55,1.56,1.56,0,0,0-1.29-.55,1.67,1.67,0,0,0-1.32.56A2.32,2.32,0,0,0,92,32.91a2.16,2.16,0,0,0,.49,1.51,1.68,1.68,0,0,0,1.31.55,1.58,1.58,0,0,0,1.29-.54,2.35,2.35,0,0,0,.45-1.55m4.61-1.83a1.18,1.18,0,0,0-1.6.37,2.49,2.49,0,0,0-.35,1.4v2.75h-.87V30.18h.87v1.11h0a1.91,1.91,0,0,1,.55-.89,1.31,1.31,0,0,1,.86-.32,1.42,1.42,0,0,1,.52.08Zm5.2,2h-3.81a2.06,2.06,0,0,0,.48,1.39,1.67,1.67,0,0,0,1.28.49,2.66,2.66,0,0,0,1.67-.59v.8a3,3,0,0,1-1.87.52,2.28,2.28,0,0,1-1.81-.74,3.06,3.06,0,0,1-.64-2.06,3.24,3.24,0,0,1,.32-1.47,2.47,2.47,0,0,1,.89-1,2.25,2.25,0,0,1,1.27-.37,2,2,0,0,1,1.63.69,2.78,2.78,0,0,1,.59,1.91Zm-.88-.73a1.8,1.8,0,0,0-.36-1.16,1.23,1.23,0,0,0-1-.42,1.42,1.42,0,0,0-1,.43,2,2,0,0,0-.54,1.15Z" transform="translate(-11.77 -14.87)"/></g></svg>